<svg width="150" height="150" viewBox="0 0 150 150" fill="none" xmlns="http://www.w3.org/2000/svg">
<g clip-path="url(#clip0)">
<path d="M72.8813 0.484741L5.7126 32.9111C4.87032 33.3177 4.33536 34.1703 4.33536 35.1054L4.33536 114.895C4.33536 115.83 4.87061 116.683 5.7126 117.089L72.8813 149.516C74.2198 150.162 75.7802 150.162 77.1188 149.516L144.287 117.089C145.13 116.683 145.665 115.83 145.665 114.895V35.1054C145.665 34.1703 145.129 33.3177 144.287 32.9111L77.1188 0.484741C75.7802 -0.161255 74.2198 -0.161255 72.8813 0.484741Z" fill="#FFE17D"/>
<path d="M4.74053 33.7714C4.48448 34.1613 4.33536 34.6204 4.33536 35.1053L4.33536 114.895C4.33536 115.83 4.87061 116.682 5.7126 117.089L72.8813 149.515C73.5504 149.838 74.2752 150 75 150V67.6898L4.74053 33.7714Z" fill="#FFC350"/>
<path d="M145.259 33.7714C145.516 34.1613 145.665 34.6204 145.665 35.1053V114.895C145.665 115.83 145.129 116.682 144.287 117.089L77.1187 149.515C76.4496 149.838 75.7248 150 75 150V67.6898L145.259 33.7714Z" fill="#FFD164"/>
<path d="M24.4356 110.642C24.0812 110.642 23.7193 110.563 23.3792 110.399L13.009 105.393C11.7955 104.807 11.2887 103.351 11.874 102.14C12.457 100.929 13.9181 100.424 15.1269 101.005L25.4971 106.012C26.7105 106.597 27.2174 108.053 26.632 109.264C26.2134 110.135 25.3424 110.642 24.4356 110.642Z" fill="#FFE17D"/>
<path d="M33.9802 104.429C33.6258 104.429 33.2639 104.35 32.9238 104.186L13.023 94.5797C11.8119 93.9943 11.3027 92.538 11.8881 91.3268C12.4711 90.1181 13.9344 89.6112 15.1409 90.1919L35.0414 99.7983C36.2525 100.384 36.7617 101.84 36.1763 103.051C35.758 103.922 34.887 104.429 33.9802 104.429Z" fill="#FFF6D8"/>
<path d="M121.45 45.2265L50.9434 11.1651L32.3575 20.1738L103.022 54.288L121.45 45.2265Z" fill="#FF8087"/>
<path d="M103.022 54.288V80.7158C103.022 81.6141 103.961 82.2035 104.77 81.813L120.073 74.4258C120.915 74.0191 121.45 73.1666 121.45 72.2314V45.2267L103.022 54.288Z" fill="#E6646E"/>
</g>
<defs>
<clipPath id="clip0">
<rect width="150" height="150" fill="white"/>
</clipPath>
</defs>
</svg>
