<svg width="283" height="437" viewBox="0 0 283 437" fill="none" xmlns="http://www.w3.org/2000/svg">
<path d="M261.749 285.262H172.198V425.735H261.749V285.262Z" fill="#B2B2B2"/>
<path d="M172.548 285.262H82.9983V425.735H172.548V285.262Z" fill="#D1D1D1"/>
<path d="M125.631 114.914L121.814 190.423L103.863 245.794H136.18L152.965 198.086L158.211 143.867L125.631 114.914Z" fill="#F7EBE7"/>
<path d="M124.728 378.834L131.226 408.766L109.4 411.33L103.193 381.859L124.728 378.834Z" fill="#FCC9A7"/>
<path d="M132.538 406.058C131.984 404.445 130.236 403.869 129.041 404.906C126.71 406.951 122.513 409.458 116.306 408.853C109.866 408.219 107.447 404.474 106.515 401.766C106.02 400.354 104.65 399.634 103.426 400.239L64.3481 419.656C61.9876 420.837 60.1226 423.027 59.1901 425.764C58.3158 428.328 60.0643 431.093 62.5122 431.036L130.032 429.192C132.684 429.134 134.723 426.541 134.49 423.545L133.383 408.853C133.354 408.622 133.325 408.363 133.237 408.132L132.538 406.058Z" fill="#1F252A"/>
<path d="M124.349 234.097H73.6729C73.6729 234.097 42.8127 232.397 40.9768 257.432C39.1409 282.467 86.2327 354.087 93.6054 392.345L135.976 388.888L105.466 284.859L181.349 285.291C186.973 285.319 192.568 284.513 197.871 282.698C212.646 277.627 235.201 270.368 222.904 230.15L124.349 234.097Z" fill="#092330"/>
<path d="M163.456 378.949L173.772 414.73L151.946 417.294L141.921 381.974L163.456 378.949Z" fill="#FCC9A7"/>
<path d="M175.083 412.022C174.53 410.408 172.781 409.832 171.587 410.869C169.255 412.915 165.059 415.421 158.852 414.816C152.412 414.182 149.993 410.437 149.061 407.729C148.565 406.318 147.196 405.597 145.972 406.202L106.894 425.62C104.533 426.801 102.668 428.99 101.736 431.727C100.861 434.291 102.61 437.057 105.058 436.999L173.743 435.155C176.395 435.098 178.435 432.505 178.201 429.509L175.899 414.816C175.87 414.586 175.841 414.326 175.754 414.096L175.083 412.022Z" fill="#1F252A"/>
<path d="M184.904 85.2407C186.04 86.3355 236.891 99.1555 236.891 99.1555L226.022 127.705L170.421 123.557L184.904 85.2407Z" fill="#F7EBE7"/>
<path d="M163.923 92.1261C163.923 92.1261 130.789 104.082 125.631 114.914C127.409 130.212 132.858 144.933 141.834 157.523C152.849 172.964 166.458 199.497 163.952 234.097H259.738C259.738 234.097 254.58 136.751 226.226 99.386L163.923 92.1261Z" fill="#F7EBE7"/>
<path d="M174.792 107.568C184.204 105.666 190.266 96.5915 188.342 87.2862L182.718 60.0617L148.652 66.947L154.277 94.1716C156.2 103.477 165.379 109.469 174.792 107.568Z" fill="#FCC9A7"/>
<path d="M185.049 69.5686C185.049 69.5686 181.465 91.6363 164.097 92.9616C148.885 94.1139 150.342 72.3631 150.342 72.3631L185.049 69.5686Z" fill="#F4BE9A"/>
<path d="M165.467 80.8618L168.468 80.1704C183.534 76.7133 192.917 61.8478 189.42 46.9823L185.457 30.0138C181.96 15.1195 166.924 5.84304 151.887 9.30013L148.885 9.99155C133.82 13.4486 124.436 28.3141 127.933 43.1796L131.896 60.1481C135.393 75.0424 150.43 84.3189 165.467 80.8618Z" fill="#FCC9A7"/>
<path d="M179.979 54.0406C179.28 55.2217 178.609 57.0079 178.376 59.7159C178.114 63.1442 176.365 66.3996 173.451 68.301C165.088 73.7747 158.706 59.9176 146.35 62.3664C146.35 62.3664 141.513 63.0866 140.551 68.4163C139.59 73.7171 132.858 64.4406 131.372 58.1026C129.886 51.7646 129.128 89.4757 159.551 86.2779C159.551 86.2779 174.908 85.7881 185.253 70.3177C186.39 68.6179 187.06 66.6301 187.118 64.5847C187.206 61.5597 186.769 56.9791 183.855 53.6948C182.835 52.4849 180.795 52.6577 179.979 54.0406Z" fill="#1C2226"/>
<path d="M180.008 45.4843C180.008 45.4843 166.865 41.1917 169.08 22.2066C169.08 22.2066 136.442 52.7442 112.255 30.3307C112.255 30.3307 123.067 27.4786 127.525 20.1611C135.656 6.82256 159.027 -11.5576 177.735 9.70347C177.735 9.70347 200.494 6.21758 193.967 40.8748L180.008 45.4843Z" fill="#1C2226"/>
<path d="M180.008 45.4843C181.261 50.7852 186.623 54.0982 191.985 52.8882C197.376 51.6494 200.698 46.3486 199.474 41.0477C198.221 35.7468 192.859 32.4338 187.497 33.6438C182.106 34.8826 178.755 40.1834 180.008 45.4843Z" fill="#FCC9A7"/>
<path d="M163.398 106.502L177.473 106.761L167.623 126.927L156.987 107.597L163.398 106.502Z" fill="#0C2C40"/>
<path d="M189.537 86.1338L171.412 107.049L183.214 120.445L204.924 90.9449C204.924 90.9449 199.358 82.1006 189.537 86.1338Z" fill="#FFF7F3"/>
<path d="M163.398 106.502L152.966 118.141L145.622 99.991C145.622 99.991 147.545 91.838 153.548 93.3937L163.398 106.502Z" fill="#FFF7F3"/>
<path d="M167.244 120.417C167.244 120.417 153.636 155.506 157.016 205.288L170.421 217.388L186.07 202.494L169.197 118.141L167.244 120.417Z" fill="#0C2C40"/>
<path d="M192.685 203.732L163.544 213.21L161.62 230.121L200.261 218.713L192.685 203.732Z" fill="#FCC9A7"/>
<path d="M167.886 224.388C167.886 234.27 159.784 242.308 149.76 242.308C139.765 242.308 131.634 234.299 131.634 224.388C131.634 214.507 139.735 206.469 149.76 206.469C159.755 206.469 167.886 214.478 167.886 224.388Z" fill="#FCC9A7"/>
<path d="M163.923 234.097H113.276C113.276 234.097 82.4157 232.397 80.5798 257.432C78.7439 282.467 129.303 358.696 136.676 396.926L179.047 393.469L145.069 284.83L220.952 285.262C226.576 285.291 232.171 284.484 237.474 282.669C252.249 277.599 274.804 270.339 262.506 230.121L163.923 234.097Z" fill="#0C2C40"/>
<path d="M11.1365 145.567H98.705C101.59 145.567 104.067 147.555 104.679 150.349L121.173 226.808C121.988 230.553 119.074 234.097 115.199 234.097H26.1732C23.2591 234.097 20.7531 232.052 20.1994 229.228L5.16266 152.769C4.405 149.024 7.28991 145.567 11.1365 145.567Z" fill="#B2B2B2"/>
<path d="M6.09525 145.567H93.6346C96.5195 145.567 98.9965 147.555 99.6085 150.349L116.102 226.808C116.918 230.554 114.033 234.097 110.128 234.097H21.132C18.2179 234.097 15.7118 232.052 15.1581 229.228L0.1214 152.769C-0.636263 149.024 2.24865 145.567 6.09525 145.567Z" fill="#D1D1D1"/>
<path d="M118.783 227.557H178.61C180.445 227.557 181.903 229.027 181.903 230.813C181.903 232.628 180.416 234.068 178.61 234.068H117.618L118.783 227.557Z" fill="#B2B2B2"/>
<path d="M60.2971 187.83C60.2971 193.044 56.0426 197.25 50.7681 197.25C45.4936 197.25 41.239 193.015 41.239 187.83C41.239 182.615 45.5227 178.409 50.7681 178.409C56.0426 178.409 60.2971 182.615 60.2971 187.83Z" fill="white"/>
<path d="M215.997 126.351L247.994 177.43L171.412 204.453L181.902 226.866C181.902 226.866 247.382 219.606 279.029 195.493C281.943 193.275 283.4 189.674 282.905 186.072C281.418 174.549 275.066 146.575 247.994 106.819C242.486 98.7234 231.529 96.2747 222.991 101.172C214.103 106.243 210.985 117.478 215.997 126.351Z" fill="#F7EBE7"/>
</svg>
