<svg width="750" height="135" viewBox="0 0 750 135" fill="none" xmlns="http://www.w3.org/2000/svg">
<g clip-path="url(#clip0)">
<path d="M95.3184 4.35483H35.1161C31.8688 4.35483 29.2354 6.99248 29.2354 10.2451V49.405V67.4251V129.11C29.2354 132.362 31.8688 135 35.1161 135H95.3207C98.5658 135 101.199 132.362 101.199 129.11V67.4248V49.4047V10.2451C101.199 6.99248 98.5658 4.35483 95.3184 4.35483Z" fill="#FF8986"/>
<path d="M101.199 17.87H29.2354V112.475H101.199V17.87Z" fill="white"/>
<path d="M76.4619 13.3647H53.9731C52.7317 13.3647 51.7241 12.3556 51.7241 11.1121C51.7241 9.86871 52.7317 8.85953 53.9731 8.85953H76.4619C77.7033 8.85953 78.7109 9.86871 78.7109 11.1121C78.7109 12.3556 77.7033 13.3647 76.4619 13.3647Z" fill="#FFC67B"/>
<path d="M92.204 13.3647H89.955C88.7136 13.3647 87.7061 12.3556 87.7061 11.1121C87.7061 9.86871 88.7136 8.85953 89.955 8.85953H92.204C93.4454 8.85953 94.453 9.86871 94.453 11.1121C94.453 12.3556 93.4454 13.3647 92.204 13.3647Z" fill="#FFC67B"/>
<path d="M68.0082 128.242H62.4243C60.2405 128.242 58.4707 126.47 58.4707 124.28V123.192C58.4707 121.005 60.2405 119.232 62.4265 119.232H68.0105C70.1943 119.232 71.9641 121.005 71.9641 123.194V124.283C71.9641 126.47 70.194 128.242 68.0082 128.242Z" fill="#FFC67B"/>
<path d="M52.8339 61.6528C52.8339 62.8288 52.5159 63.8368 51.8799 64.6768C51.2439 65.5168 50.3619 66.1108 49.2339 66.4588L51.4299 70.3468H48.3519L46.3719 66.8188H43.8879L43.1859 70.3468H40.2519L42.7719 57.7468H47.9019C49.4619 57.7468 50.6739 58.0888 51.5379 58.7728C52.4019 59.4568 52.8339 60.4168 52.8339 61.6528ZM46.8219 64.4968C47.7939 64.4968 48.5439 64.2748 49.0719 63.8308C49.6119 63.3868 49.8819 62.7508 49.8819 61.9228C49.8819 61.3228 49.6779 60.8728 49.2699 60.5728C48.8619 60.2728 48.2799 60.1228 47.5239 60.1228H45.2199L44.3379 64.4968H46.8219ZM58.7982 60.0868L58.2582 62.8228H64.1082L63.6582 65.0908H57.7902L57.2142 68.0068H64.0902L63.6042 70.3468H53.8482L56.3682 57.7468H65.8902L65.4042 60.0868H58.7982ZM76.4912 71.0848C76.8752 71.0848 77.2532 71.0068 77.6252 70.8508C77.9972 70.7068 78.3272 70.4908 78.6152 70.2028L79.7132 71.9488C79.3172 72.3688 78.8192 72.6868 78.2192 72.9028C77.6312 73.1308 76.9952 73.2448 76.3112 73.2448C74.1992 73.2448 72.5672 72.3148 71.4152 70.4548C69.9152 70.2268 68.7452 69.6328 67.9052 68.6728C67.0652 67.7128 66.6452 66.5188 66.6452 65.0908C66.6452 63.6628 66.9692 62.3788 67.6172 61.2388C68.2772 60.0868 69.1952 59.1808 70.3712 58.5208C71.5592 57.8608 72.9152 57.5308 74.4392 57.5308C75.6992 57.5308 76.7912 57.7588 77.7152 58.2148C78.6392 58.6708 79.3472 59.3128 79.8392 60.1408C80.3312 60.9688 80.5772 61.9228 80.5772 63.0028C80.5772 64.2028 80.3432 65.3068 79.8752 66.3148C79.4072 67.3228 78.7412 68.1748 77.8772 68.8708C77.0252 69.5668 76.0232 70.0528 74.8712 70.3288C75.2792 70.8328 75.8192 71.0848 76.4912 71.0848ZM69.5972 64.9288C69.5972 65.8888 69.8972 66.6568 70.4972 67.2328C71.0972 67.7968 71.9432 68.0788 73.0352 68.0788C73.9592 68.0788 74.7692 67.8568 75.4652 67.4128C76.1612 66.9688 76.6952 66.3748 77.0672 65.6308C77.4392 64.8868 77.6252 64.0648 77.6252 63.1648C77.6252 62.2048 77.3252 61.4428 76.7252 60.8788C76.1252 60.3028 75.2792 60.0148 74.1872 60.0148C73.2632 60.0148 72.4532 60.2368 71.7572 60.6808C71.0612 61.1248 70.5272 61.7188 70.1552 62.4628C69.7832 63.2068 69.5972 64.0288 69.5972 64.9288ZM82.5432 70.4908C82.0632 70.4908 81.6672 70.3408 81.3552 70.0408C81.0432 69.7288 80.8872 69.3388 80.8872 68.8708C80.8872 68.3188 81.0672 67.8688 81.4272 67.5208C81.7872 67.1728 82.2312 66.9988 82.7592 66.9988C83.2392 66.9988 83.6292 67.1488 83.9292 67.4488C84.2412 67.7488 84.3972 68.1388 84.3972 68.6188C84.3972 69.1588 84.2112 69.6088 83.8392 69.9688C83.4792 70.3168 83.0472 70.4908 82.5432 70.4908ZM87.6141 70.4908C87.1341 70.4908 86.7381 70.3408 86.4261 70.0408C86.1141 69.7288 85.9581 69.3388 85.9581 68.8708C85.9581 68.3188 86.1381 67.8688 86.4981 67.5208C86.8581 67.1728 87.3021 66.9988 87.8301 66.9988C88.3101 66.9988 88.7001 67.1488 89.0001 67.4488C89.3121 67.7488 89.4681 68.1388 89.4681 68.6188C89.4681 69.1588 89.2821 69.6088 88.9101 69.9688C88.5501 70.3168 88.1181 70.4908 87.6141 70.4908Z" fill="#FF8986"/>
</g>
<g clip-path="url(#clip1)">
<path d="M301.84 4.35483H241.638C238.39 4.35483 235.757 6.99248 235.757 10.2451V49.405V67.4251V129.11C235.757 132.362 238.39 135 241.638 135H301.842C305.088 135 307.721 132.362 307.721 129.11V67.4248V49.4047V10.2451C307.721 6.99248 305.088 4.35483 301.84 4.35483Z" fill="#FF8986"/>
<path d="M307.721 17.87H235.757V112.475H307.721V17.87Z" fill="white"/>
<path d="M282.984 13.3647H260.495C259.253 13.3647 258.246 12.3556 258.246 11.1121C258.246 9.86871 259.253 8.85953 260.495 8.85953H282.984C284.225 8.85953 285.233 9.86871 285.233 11.1121C285.233 12.3556 284.225 13.3647 282.984 13.3647Z" fill="#FFC67B"/>
<path d="M298.726 13.3647H296.477C295.235 13.3647 294.228 12.3556 294.228 11.1121C294.228 9.86871 295.235 8.85953 296.477 8.85953H298.726C299.967 8.85953 300.975 9.86871 300.975 11.1121C300.975 12.3556 299.967 13.3647 298.726 13.3647Z" fill="#FFC67B"/>
<path d="M274.53 128.242H268.946C266.762 128.242 264.992 126.47 264.992 124.28V123.192C264.992 121.005 266.762 119.232 268.948 119.232H274.532C276.716 119.232 278.486 121.005 278.486 123.194V124.283C278.486 126.47 276.716 128.242 274.53 128.242Z" fill="#FFC67B"/>
<path d="M302.705 70.9618C302.705 53.4168 288.505 39.1935 270.988 39.1935C259.916 39.1935 250.169 44.8766 244.495 53.4892C241.194 58.502 240.217 64.2846 240.217 70.7392C240.217 88.2842 253.472 101.125 270.988 101.125C279.096 101.125 286.493 99.6833 292.1 94.6705C298.608 88.8525 302.705 80.3863 302.705 70.9618Z" fill="#FF8986"/>
<path d="M273.65 56.1458H268.49L267.55 51.5854C267.55 49.9292 268.508 48.252 270.162 48.252H271.816C273.47 48.252 274.81 49.5946 274.81 51.2509V52.5745L273.65 56.1458Z" fill="#F7E365"/>
<path d="M274.81 52.5745V56.1468H267.167V51.2502C267.167 49.5944 268.508 48.252 270.161 48.252H270.479V51.5538C270.479 52.1175 270.935 52.5745 271.498 52.5745H274.81Z" fill="#F4D242"/>
<path d="M283.162 74.5836C282.901 74.0332 284.248 74.2483 284.044 73.677C283.337 71.7005 282.974 69.6127 282.974 67.5045V66.2075C282.974 59.5823 277.845 55.5362 270.999 55.5382C264.492 55.54 260.121 66.3938 260.121 66.3938C260.121 66.3938 259.646 73.2085 257.779 76.6458L284.057 76.4721L283.162 74.5836Z" fill="#F7E365"/>
<path d="M284.74 75.3608C284.48 74.8097 284.249 74.2483 284.045 73.6767H263.568C263.053 73.6767 262.692 73.1791 262.838 72.6844C263.332 71.0069 263.588 69.2631 263.588 67.5042V66.0115C263.588 60.2626 267.86 56.5091 273.332 55.7028C272.581 55.5956 271.801 55.5395 270.999 55.5395C264.492 55.5395 259.002 59.4946 259.002 66.0115C259.237 69.9347 258.2 73.8153 256.34 77.2491L269.877 78.9479L285.637 77.2491L284.74 75.3608Z" fill="#F4D242"/>
<path d="M270.989 92.5593C270.647 92.5593 270.312 92.5294 269.987 92.472C267.299 91.9977 266.235 89.076 266.235 86.2472V84.3335L275.645 84.073V86.1143C275.645 86.3299 276.709 87.2465 276.685 87.4557C276.369 90.3266 273.939 92.5593 270.989 92.5593Z" fill="#F7E365"/>
<path d="M276.721 84.904V86.8178C276.721 87.0347 276.708 87.2465 276.685 87.4557H269.842C269.42 87.4557 269.078 87.7984 269.078 88.2212V89.3695C269.078 90.5126 269.412 91.5767 269.987 92.4697C267.3 91.9977 265.257 89.6476 265.257 86.8178V84.904L271.222 83.4649L276.721 84.904Z" fill="#F4D242"/>
<path d="M286.401 84.9043H259.167L256.554 84.5397C255.147 84.5397 254.007 83.3973 254.007 81.988L254.093 80.2235C254.093 78.8142 255.234 77.6719 256.641 77.6719L259.297 77.2491H286.401C287.808 77.2491 288.949 78.3914 288.949 79.8007V82.3524C288.949 83.7619 287.808 84.9043 286.401 84.9043Z" fill="#F7E365"/>
<path d="M260.926 84.904H255.576C254.17 84.904 253.028 83.7609 253.028 82.3524V79.8007C253.028 78.3922 254.17 77.2491 255.576 77.2491H260.926C259.519 77.2491 258.633 78.3922 258.633 79.8007V82.3524C258.633 83.7609 259.519 84.904 260.926 84.904Z" fill="#F4D242"/>
</g>
<g clip-path="url(#clip2)">
<path d="M508.362 -3.05176e-05L448.16 -3.05176e-05C444.912 -3.05176e-05 442.279 2.63762 442.279 5.89023V45.0501V63.0702V124.755C442.279 128.007 444.912 130.645 448.16 130.645H508.364C511.609 130.645 514.243 128.007 514.243 124.755V63.0699V45.0498V5.89023C514.243 2.63762 511.609 -3.05176e-05 508.362 -3.05176e-05Z" fill="#FFC67B"/>
<path d="M514.243 13.5151H442.279V108.12H514.243V13.5151Z" fill="white"/>
<path d="M489.505 9.00989H467.017C465.775 9.00989 464.768 8.0007 464.768 6.75728C464.768 5.51385 465.775 4.50467 467.017 4.50467H489.505C490.747 4.50467 491.754 5.51385 491.754 6.75728C491.754 8.0007 490.747 9.00989 489.505 9.00989Z" fill="#FF8986"/>
<path d="M505.247 9.00989H502.998C501.757 9.00989 500.75 8.0007 500.75 6.75728C500.75 5.51385 501.757 4.50467 502.998 4.50467H505.247C506.489 4.50467 507.496 5.51385 507.496 6.75728C507.496 8.0007 506.489 9.00989 505.247 9.00989Z" fill="#FF8986"/>
<path d="M481.052 123.888H475.468C473.284 123.888 471.514 122.115 471.514 119.925V118.837C471.514 116.65 473.284 114.877 475.47 114.877H481.054C483.238 114.877 485.008 116.65 485.008 118.84V119.928C485.008 122.115 483.237 123.888 481.052 123.888Z" fill="#FF8986"/>
<g clip-path="url(#clip3)">
<path d="M478.261 38.1048C463.277 38.1048 451.087 50.3141 451.087 65.3225C451.087 80.331 463.277 92.5403 478.261 92.5403C493.245 92.5403 505.435 80.331 505.435 65.3225C505.435 50.3141 493.245 38.1048 478.261 38.1048Z" fill="#FFC67B"/>
<path d="M492.034 59.5547L477.314 74.2974C476.873 74.7397 476.293 74.9623 475.713 74.9623C475.134 74.9623 474.554 74.7397 474.112 74.2974L466.753 66.9261C465.867 66.0394 465.867 64.6057 466.753 63.719C467.638 62.8319 469.069 62.8319 469.955 63.719L475.713 69.4869L488.832 56.3477C489.717 55.4606 491.148 55.4606 492.034 56.3477C492.919 57.2344 492.919 58.6676 492.034 59.5547Z" fill="#FAFAFA"/>
</g>
</g>
<g clip-path="url(#clip4)">
<path d="M714.884 3.26608H654.682C651.434 3.26608 648.801 5.90374 648.801 9.15634V48.3162V66.3363V128.021C648.801 131.274 651.434 133.911 654.682 133.911H714.886C718.131 133.911 720.765 131.274 720.765 128.021V66.3361V48.316V9.15634C720.765 5.90374 718.131 3.26608 714.884 3.26608Z" fill="#FFC67B"/>
<path d="M720.765 16.7812H648.801V111.386H720.765V16.7812Z" fill="white"/>
<path d="M696.027 12.276H673.538C672.297 12.276 671.289 11.2668 671.289 10.0234C671.289 8.77997 672.297 7.77078 673.538 7.77078H696.027C697.269 7.77078 698.276 8.77997 698.276 10.0234C698.276 11.2668 697.269 12.276 696.027 12.276Z" fill="#FF8A86"/>
<path d="M711.769 12.276H709.52C708.279 12.276 707.271 11.2668 707.271 10.0234C707.271 8.77997 708.279 7.77078 709.52 7.77078H711.769C713.011 7.77078 714.018 8.77997 714.018 10.0234C714.018 11.2668 713.011 12.276 711.769 12.276Z" fill="#FF8A86"/>
<path d="M687.573 127.154H681.989C679.806 127.154 678.036 125.381 678.036 123.191V122.103C678.036 119.916 679.806 118.144 681.992 118.144H687.576C689.759 118.144 691.529 119.916 691.529 122.106V123.194C691.529 125.381 689.759 127.154 687.573 127.154Z" fill="#FF8A86"/>
<g clip-path="url(#clip5)">
<path d="M685.914 37.0161C685.289 37.0161 684.783 37.5233 684.783 38.149V63.0719C684.783 63.6976 685.289 64.2048 685.914 64.2048H710.797C711.421 64.2048 711.928 63.6976 711.928 63.0719C711.911 48.6884 700.274 37.0323 685.914 37.0161Z" fill="#FFC107"/>
<path d="M698.117 85.0335L682.52 64.9502V40.4147C682.52 39.789 682.014 39.2818 681.389 39.2818C668.292 39.2818 657.637 50.9707 657.637 65.3375C657.653 79.7211 669.291 91.3771 683.651 91.3934C688.865 91.7992 694.021 90.0711 697.941 86.6036C698.414 86.2145 698.492 85.5184 698.117 85.0335Z" fill="#FFC67B"/>
<path d="M710.796 66.4704H688.176C687.551 66.4705 687.045 66.9779 687.045 67.6035C687.045 67.8624 687.133 68.1133 687.296 68.3147L701.999 86.5469C702.197 86.792 702.487 86.9438 702.8 86.9661H702.879C703.165 86.9663 703.441 86.8578 703.651 86.6625C708.92 81.7272 711.915 74.8287 711.928 67.6032C711.927 66.9777 711.421 66.4704 710.796 66.4704Z" fill="#F7E365"/>
</g>
</g>
<g clip-path="url(#clip6)">
<path d="M595.578 68.1838L570.441 43.0754C569.617 42.2532 568.284 42.2546 567.462 43.0796C566.64 43.9046 566.642 45.2409 567.466 46.0637L591.107 69.6776L567.465 93.2915C566.641 94.1144 566.639 95.4499 567.461 96.2749C567.873 96.6885 568.413 96.8953 568.953 96.8953C569.491 96.8953 570.029 96.6899 570.441 96.2792L595.578 71.1714C595.975 70.7761 596.198 70.2382 596.198 69.6776C596.198 69.1171 595.974 68.5798 595.578 68.1838Z" fill="white"/>
</g>
<g clip-path="url(#clip7)">
<path d="M182.535 63.8289L157.397 38.7205C156.574 37.8984 155.24 37.8997 154.418 38.7248C153.596 39.5497 153.598 40.886 154.422 41.7088L178.063 65.3228L154.421 88.9366C153.598 89.7595 153.596 91.095 154.417 91.92C154.829 92.3336 155.369 92.5404 155.909 92.5404C156.448 92.5404 156.986 92.335 157.397 91.9243L182.535 66.8166C182.931 66.4213 183.154 65.8833 183.154 65.3228C183.154 64.7623 182.931 64.2249 182.535 63.8289Z" fill="white"/>
</g>
<g clip-path="url(#clip8)">
<path d="M389.057 63.8289L363.919 38.7205C363.095 37.8984 361.762 37.8997 360.94 38.7248C360.118 39.5497 360.12 40.886 360.944 41.7088L384.585 65.3228L360.943 88.9366C360.12 89.7595 360.118 91.095 360.939 91.92C361.351 92.3336 361.891 92.5404 362.431 92.5404C362.97 92.5404 363.508 92.335 363.919 91.9243L389.057 66.8166C389.453 66.4213 389.676 65.8833 389.676 65.3228C389.676 64.7623 389.453 64.2249 389.057 63.8289Z" fill="white"/>
</g>
<defs>
<clipPath id="clip0">
<rect width="130.435" height="130.645" fill="white" transform="translate(0 4.35483)"/>
</clipPath>
<clipPath id="clip1">
<rect width="130.435" height="130.645" fill="white" transform="translate(206.522 4.35483)"/>
</clipPath>
<clipPath id="clip2">
<rect width="130.435" height="130.645" fill="white" transform="translate(413.043)"/>
</clipPath>
<clipPath id="clip3">
<rect width="54.3478" height="54.4355" fill="white" transform="translate(451.087 38.1048)"/>
</clipPath>
<clipPath id="clip4">
<rect width="130.435" height="130.645" fill="white" transform="translate(619.565 3.26608)"/>
</clipPath>
<clipPath id="clip5">
<rect width="54.3478" height="54.4355" fill="white" transform="translate(657.609 37.0161)"/>
</clipPath>
<clipPath id="clip6">
<rect width="54.3478" height="54.4355" fill="white" transform="translate(554.348 42.4597)"/>
</clipPath>
<clipPath id="clip7">
<rect width="54.3478" height="54.4355" fill="white" transform="translate(141.304 38.1048)"/>
</clipPath>
<clipPath id="clip8">
<rect width="54.3478" height="54.4355" fill="white" transform="translate(347.826 38.1048)"/>
</clipPath>
</defs>
</svg>
