<svg width="200" height="450" viewBox="0 0 200 450" fill="none" xmlns="http://www.w3.org/2000/svg">
<path d="M139.266 448.976C146.724 448.864 154.222 448.713 161.642 447.737C163.961 447.436 166.743 446.685 167.362 444.469C167.864 442.742 166.666 440.864 165.043 439.962C163.42 439.061 161.487 438.911 159.632 438.835C144.792 437.972 129.914 438.122 115.074 438.272C95.8664 438.46 76.6205 438.685 57.4521 440.225C53.1624 440.563 47.9452 444.958 53.2011 448.263C57.6841 451.08 65.9929 449.615 71.0169 449.652C85.5478 449.727 100.04 449.577 114.571 449.389C122.803 449.239 131.034 449.089 139.266 448.976Z" fill="url(#paint0_linear)"/>
<path d="M139.266 448.976C146.724 448.864 154.222 448.713 161.642 447.737C163.961 447.436 166.743 446.685 167.362 444.469C167.864 442.742 166.666 440.864 165.043 439.962C163.42 439.061 161.487 438.911 159.632 438.835C144.792 437.972 129.914 438.122 115.074 438.272C95.8664 438.46 76.6205 438.685 57.4521 440.225C53.1624 440.563 47.9452 444.958 53.2011 448.263C57.6841 451.08 65.9929 449.615 71.0169 449.652C85.5478 449.727 100.04 449.577 114.571 449.389C122.803 449.239 131.034 449.089 139.266 448.976Z" fill="url(#paint1_linear)"/>
<path d="M75.3061 268.695C78.7456 259.23 82.1852 239.437 86.7067 230.385C90.3395 223.099 95.9817 241.69 100.658 234.967C104.097 229.972 108.078 225.24 113.141 221.784C118.203 218.329 124.464 216.3 130.609 217.164C139.536 218.404 146.608 225.615 150.009 233.728C153.449 241.84 157.932 239.812 158.279 248.563C160.444 301.596 157.197 366.648 141.777 417.54C140.386 422.085 138.763 426.817 135.246 430.122C131.729 433.427 125.739 434.704 121.952 431.699C129.333 385.202 131.614 353.202 122.764 306.967C121.72 301.446 121.527 292.019 119.363 290.93C117.624 290.066 113.72 290.216 111.402 291.005C100.929 336.113 92.2717 373.483 81.7986 418.554C80.9871 421.972 79.7892 425.916 76.427 427.193C64.3308 431.775 65.0649 419.493 64.6398 412.169C64.0601 401.577 63.5965 390.986 63.4033 380.357C63.0555 359.324 63.8669 338.141 67.5769 317.371C69.4706 305.953 71.3256 279.549 75.3061 268.695Z" fill="#A58C41"/>
<path d="M178.493 20.3192C178.222 18.8919 178.184 17.4271 178.377 15.9623C178.57 14.5351 179.266 12.8825 180.695 12.6572C182.087 12.4318 183.13 13.8214 183.748 15.0609C186.531 20.8073 186.918 27.4552 187.265 33.8778C185.063 34.4787 182.744 34.7417 180.464 34.629C180.657 31.9248 180.155 29.2205 179.072 26.8167C177.913 24.2252 175.981 21.7464 176.367 18.8919C176.754 18.8919 177.14 18.8543 177.488 18.8543C177.836 19.3426 178.145 19.8309 178.493 20.3192Z" fill="#E8DBCE"/>
<path d="M147.768 132.62C141.392 135.737 134.474 136.601 132.271 128.225C128.445 113.69 141.082 101.221 153.642 95.9623C156 94.9858 158.396 94.197 160.753 93.2205C167.4 90.4411 173.352 86.2347 178.144 80.9764C184.057 74.4788 184.598 70.9482 183.671 62.7229C183.439 60.5445 178.917 33.6525 179.922 33.3896C182.782 32.6384 185.603 31.9248 188.463 31.1736C188.694 31.0985 196.578 60.6572 197.622 63.2863C201.138 72.1877 200.945 80.0375 195.767 88.7135C191.4 95.9999 184.907 101.821 178.492 107.493C171.458 113.69 164.425 119.925 157.43 126.122C155.111 128.113 151.517 130.779 147.768 132.62Z" fill="#1F375A"/>
<path d="M122.456 432.676C127.248 432.3 132.04 432.488 136.794 433.277C140.426 435.906 144.446 438.084 148.658 439.737C149.895 440.225 151.17 440.676 152.059 441.615C152.948 442.554 153.334 444.131 152.484 445.108C151.75 445.972 150.436 446.047 149.276 446.084C140.426 446.159 131.615 445.446 122.92 443.906C122.417 443.831 121.838 443.718 121.451 443.343C121.142 443.042 121.026 442.629 120.91 442.253C120.06 439.023 120.601 435.455 122.456 432.676Z" fill="#736357"/>
<path d="M82.9972 432.226C78.2051 432.113 73.413 432.601 68.7368 433.653C65.2587 436.508 61.3942 438.911 57.2977 440.827C56.0997 441.39 54.8629 441.916 54.0127 442.893C53.1625 443.869 52.892 445.484 53.8195 446.423C54.5924 447.249 55.9065 447.249 57.0659 447.212C65.8772 446.799 74.6497 445.559 83.2291 443.493C83.7315 443.381 84.2728 443.231 84.6592 442.855C84.9298 442.555 85.0457 442.141 85.123 441.728C85.8186 438.423 85.0455 434.893 82.9972 432.226Z" fill="#736357"/>
<path d="M111.712 98.5167C115.693 98.4792 119.325 96.2257 122.108 93.4464C132.388 83.0802 132.117 66.8548 131.074 52.4699C130.958 50.93 130.842 49.3524 129.953 48.0754C128.601 46.1224 125.895 45.6341 123.499 45.3712C113.22 45.3712 103.094 45.8219 92.737 46.3102C91.8482 46.3477 90.9206 46.4229 90.2636 46.9487C89.5294 47.5121 89.2589 48.451 89.1043 49.3524C88.37 53.4839 89.7614 57.8031 89.6841 62.0473C89.6068 66.3665 89.8 70.7234 90.5729 75.0051C92.0801 83.3055 96.022 91.0426 103.442 95.775C105.915 97.3525 108.775 98.5543 111.712 98.5167Z" fill="#F0E5D4"/>
<path d="M118.902 96.9766C116.351 99.4179 112.448 100.319 108.931 99.6057C105.414 98.8921 102.477 95.9626 100.352 93.1832C103.134 93.4461 106.535 95.8499 109.24 96.6011C114.187 97.9532 118.979 96.7512 120.873 92.6573C121.53 94.1597 120.1 95.8123 118.902 96.9766Z" fill="#333333"/>
<path d="M129.373 36.2445C135.634 40.9393 135.904 49.8783 135.286 57.5778C135.015 60.9205 134.32 64.8267 131.228 66.329C131.383 62.9112 129.064 59.9064 126.9 57.2398C125.393 55.3994 123.847 53.5215 121.682 52.4323C115.19 49.2022 108.156 54.3477 101.625 54.7609C97.2968 55.0614 95.751 53.1459 94.2052 57.8783C92.9685 61.7469 92.5434 66.0285 92.5048 70.0473C92.5048 70.5731 92.5047 71.0989 92.2342 71.5496C91.9637 72.0003 91.3068 72.2257 90.8817 71.8876C90.7271 71.7374 90.6111 71.5496 90.5338 71.3243C88.2537 65.9534 84.0027 60.1694 83.1912 54.4605C82.1864 47.437 83.1524 40.0004 85.703 33.3525C86.2054 32.038 87.0944 30.5731 88.5243 30.6107C89.5291 30.6483 90.302 31.4745 91.1136 32.0754C92.9686 33.5027 95.4805 33.8407 97.8379 33.6529C100.195 33.4651 102.475 32.8266 104.794 32.451C109.316 31.775 113.451 32.7891 117.895 32.9769C121.837 33.2023 126.049 33.7656 129.373 36.2445Z" fill="#EFAB50"/>
<path d="M122.881 101.897C129.103 95.4747 134.977 102.648 137.257 108.883C146.571 134.085 149.663 161.052 152.677 187.719C153.179 192.001 153.643 196.282 154.146 200.526C155.885 215.925 157.662 231.287 159.401 246.686C159.517 247.587 141.392 251.343 139.846 251.719C130.378 254.01 120.523 254.085 110.862 253.484C98.7657 252.695 86.708 250.855 74.5732 250.893C69.3946 250.893 64.1387 251.268 59.1147 249.991C61.0857 241.052 61.2404 231.813 61.6268 222.686C62.5543 200.601 64.9118 178.63 67.2692 156.695C68.5832 144.376 69.3174 131.756 71.0565 119.55C71.984 112.864 75.1144 101.184 81.9934 98.2916C89.2975 95.2117 92.8915 103.437 98.8043 105.578C105.606 108.057 113.915 108.47 120.098 104.301C121.296 103.512 122.108 102.686 122.881 101.897Z" fill="#1F375A"/>
<path d="M158.552 241.615C158.822 241.577 158.938 241.427 158.784 241.127C157.74 239.324 156.117 236.056 154.417 232.188C153.141 213.033 151.17 193.803 147.731 174.948C143.48 151.662 134.321 130.066 128.871 107.192C127.248 100.469 118.978 101.07 115.925 105.765C115.693 105.803 115.461 105.878 115.191 105.915C112.563 103.662 109.355 101.784 105.414 100.432C101.008 98.8919 96.4476 102.873 96.4476 107.042C96.4476 111.512 96.3703 115.981 96.2544 120.451C88.6025 156.882 84.0035 193.915 82.5736 231.061C82.5736 231.098 82.5736 231.136 82.5736 231.174C82.1484 233.089 81.7235 235.004 81.2597 236.882C80.2936 239.774 79.2886 243.042 79.134 245.596C79.0567 245.859 79.0181 246.084 78.9408 246.347C78.1292 249.615 80.023 252.432 83.1533 253.521C107.114 262.047 132.698 260.657 155.653 250.028C155.963 249.878 156.272 249.727 156.504 249.54C156.697 249.465 156.89 249.389 157.122 249.277C157.47 249.014 157.817 248.751 158.204 248.488C159.016 247.699 159.518 246.648 159.673 245.558C159.866 244.244 159.479 242.704 158.552 241.615Z" fill="#F0F0F0"/>
<path d="M39.5591 17.7653C39.8296 16.3381 39.8684 14.8733 39.6752 13.4085C39.4819 11.9813 38.7862 10.3288 37.3563 10.1034C35.965 9.87809 34.9216 11.2677 34.3033 12.5071C31.5208 18.2536 31.1344 24.9015 30.7866 31.3241C32.9894 31.925 35.308 32.1879 37.5881 32.0752C37.3949 29.371 37.8975 26.6668 38.9796 24.263C40.139 21.6715 42.0711 19.1927 41.6846 16.3382C41.2981 16.3382 40.9118 16.3006 40.564 16.3006C40.2161 16.7889 39.9069 17.2771 39.5591 17.7653Z" fill="#E8DBCE"/>
<path d="M70.2835 130.066C76.6601 133.183 83.5778 134.047 85.7806 125.671C89.6066 111.136 76.9692 98.6667 64.4092 93.4085C62.0518 92.432 59.6559 91.6432 57.2985 90.6667C50.6513 87.8873 44.6998 83.6808 39.9077 78.4226C33.9949 71.925 33.4539 68.3944 34.3814 60.169C34.6132 57.9906 39.1347 31.0986 38.1299 30.8357C35.2701 30.0845 32.4491 29.3709 29.5893 28.6198C29.3574 28.5447 21.4734 58.1033 20.43 60.7324C16.9132 69.6338 17.1066 77.4836 22.2851 86.1597C26.6521 93.4461 33.1446 99.2301 39.5598 104.939C46.5934 111.136 53.627 117.371 60.622 123.568C62.9407 125.559 66.5348 128.225 70.2835 130.066Z" fill="#1F375A"/>
<path d="M116.658 75.6431C120.832 75.7558 125.083 75.9436 129.14 75.0422C130.725 74.7042 132.348 74.1033 133.276 72.7888C133.933 71.8498 134.126 70.6478 134.203 69.5211C134.512 65.2769 133.701 60.9578 131.923 57.0517C131.575 56.3005 131.189 55.5493 130.493 55.0611C129.836 54.5728 128.947 54.4601 128.136 54.3474C120.445 53.5963 112.445 54.7981 104.716 54.9859C100.465 55.0985 96.6778 56.1878 92.4654 55.6244C91.7697 55.5493 91.0355 55.4366 90.3786 55.6995C89.5283 56.0375 89.0259 56.8638 88.6394 57.6901C86.9777 61.3333 86.939 65.3521 87.4027 69.2582C87.7119 71.6244 87.6346 75.4178 90.5331 75.9811C94.3204 76.7323 99.499 75.568 103.402 75.5305C107.847 75.4929 112.252 75.5305 116.658 75.6431Z" fill="#595959"/>
<path d="M116.31 75.0049C120.213 75.1176 124.194 75.3053 128.02 74.4415C129.488 74.1034 131.034 73.5401 131.885 72.3382C132.503 71.4368 132.657 70.3477 132.735 69.2585C133.005 65.2772 132.271 61.2208 130.609 57.5777C130.3 56.9016 129.914 56.188 129.295 55.7373C128.677 55.2866 127.865 55.1739 127.054 55.0988C119.866 54.3852 112.33 55.5119 105.103 55.6997C101.122 55.8124 97.6054 56.8265 93.6248 56.3007C92.9678 56.2256 92.2722 56.1504 91.6925 56.3757C90.8809 56.6762 90.4173 57.4649 90.0694 58.2537C88.5236 61.6715 88.485 65.465 88.9101 69.0706C89.1806 71.2866 89.1034 74.8546 91.8473 75.3804C95.4027 76.094 100.233 75.0049 103.905 74.9297C108.04 74.8546 112.175 74.8923 116.31 75.0049Z" fill="#4A4A4A"/>
<path d="M96.6395 56.8265C94.9004 56.9392 92.8908 57.1268 91.8087 58.479C90.9971 59.5306 90.9584 60.9203 90.9584 62.2348C90.9584 64.5259 90.9586 66.817 90.9199 69.0705C90.9199 70.0846 90.9199 71.1739 91.4223 72.0753C92.002 73.0894 93.1227 73.7279 94.2821 73.9532C95.4415 74.2161 96.6395 74.141 97.8375 74.0659C99.8084 73.9532 101.779 73.8405 103.712 73.6903C105.219 73.6152 106.997 73.3523 107.731 72.0753C108.272 71.1363 108.117 69.8969 108.774 69.033C109.431 68.1692 110.707 67.9813 111.827 67.9062C112.33 68.9203 112.021 70.1598 112.484 71.2114C112.871 72.0752 113.721 72.7138 114.648 73.0143C115.576 73.3147 116.581 73.3523 117.547 73.3523C120.368 73.3898 123.228 73.3147 126.049 73.0893C127.44 72.9767 129.025 72.7513 129.759 71.6245C130.184 70.986 130.261 70.1973 130.339 69.4461C130.648 65.8029 130.996 62.1223 130.03 58.5917C129.836 57.9157 129.605 57.2021 129.064 56.7138C128.252 55.9626 127.054 55.8499 125.933 55.8123C116.117 55.5119 106.456 56.2631 96.6395 56.8265Z" fill="#707070"/>
<path d="M6.20712 8.86365C6.12983 8.75098 6.09131 8.63831 6.09131 8.52564C6.09131 8.3754 6.20724 8.22522 6.32318 8.11255C7.0961 7.32381 8.10086 6.76039 9.18295 6.42236C9.26024 6.3848 9.33752 6.38477 9.41481 6.38477C9.5694 6.42232 9.64676 6.53499 9.72405 6.61011C9.99457 6.9857 10.2651 7.36135 10.497 7.73694C10.5357 7.81205 10.5741 7.84957 10.5355 7.92469C10.4968 7.9998 10.4583 7.9998 10.381 8.03736C9.49211 8.48806 8.642 8.97638 7.83043 9.5022C7.55991 9.68999 7.25054 9.99045 6.90273 9.84021C6.59356 9.65242 6.40035 9.12656 6.20712 8.86365Z" fill="#484849"/>
<path d="M25.7623 2.47889C25.685 2.36621 25.6465 2.25343 25.6465 2.14076C25.6465 1.99052 25.7624 1.84034 25.8784 1.72767C26.6513 0.938935 27.656 0.375509 28.7381 0.0374807C28.8154 -7.79407e-05 28.8927 1.33136e-09 28.97 1.33136e-09C29.1246 0.0375587 29.2019 0.150226 29.2792 0.225343C29.5497 0.60093 29.8203 0.97647 30.0522 1.35206C30.0908 1.42717 30.1293 1.4648 30.0906 1.53992C30.052 1.61504 30.0134 1.61503 29.9361 1.65259C29.0473 2.10329 28.1972 2.5915 27.3856 3.11732C27.1151 3.30511 26.8057 3.60557 26.4579 3.45533C26.1487 3.3051 25.9555 2.7418 25.7623 2.47889Z" fill="#484849"/>
<path d="M8.21676 8.26314C6.59363 9.3899 5.55008 11.1177 4.97039 12.9205C4.27476 15.0989 3.15414 16.7139 1.95612 18.742C1.18319 20.0566 0.410151 21.4088 0.139628 22.9111C-0.440063 25.728 0.835258 28.7702 3.03808 30.6857C5.24091 32.6012 8.33261 33.465 11.2697 33.2772C14.2068 33.127 18.1874 32.0003 20.0424 29.7092C22.0134 27.3055 23.4434 24.8266 26.1486 23.0989C31.6363 19.5683 37.2014 22.9861 43.1143 21.8594C44.5055 21.5965 45.8966 21.1083 46.8241 20.0942C47.6744 19.1928 48.0608 17.9908 48.2154 16.8265C48.4086 15.3242 48.254 13.8218 47.7129 12.3946C46.399 8.75143 43.1142 6.23496 39.9453 3.90632C37.8197 2.32886 36.0418 0.526069 33.2207 0.413393C30.7087 0.300717 28.2355 1.54017 26.1486 2.77961C23.3661 4.46975 20.7381 6.08481 17.4145 6.4604C14.2842 6.83599 10.9993 6.31009 8.21676 8.26314Z" fill="#434244"/>
<path d="M32.2153 7.02344C31.4037 7.061 30.4375 7.77462 30.4375 8.56336C30.4375 9.38965 31.2877 10.1032 32.1379 10.0281C33.7997 9.84029 34.3407 7.58678 32.6017 7.09851C32.5244 7.0234 32.3699 7.02344 32.2153 7.02344Z" fill="#98B99D"/>
<path d="M37.665 5.52123C36.8148 5.48367 35.8872 6.12219 35.8872 6.94848C35.8872 7.77477 36.7374 8.48832 37.5876 8.41321C39.0562 8.26297 39.5587 6.385 38.2061 5.67138C38.0515 5.55871 37.8582 5.52123 37.665 5.52123Z" fill="#AA6A64"/>
<path d="M8.79763 15.211C7.48366 15.9246 6.51753 17.2768 6.40159 18.7791C6.28565 20.2815 7.01993 21.8589 8.3339 22.6477C9.10682 23.1359 10.0729 23.2861 10.9618 23.3237C11.5028 23.3237 12.0825 23.2862 12.6236 23.1359C14.324 22.6477 15.7152 21.1829 15.9471 19.4552C16.4108 15.5115 11.8507 13.5584 8.79763 15.211Z" fill="#505151"/>
<path opacity="0.71" d="M9.56975 18.7043C8.6036 18.9296 7.67617 19.1175 6.74866 19.6057C6.63273 19.6433 6.55541 19.7184 6.47811 19.8311C6.43947 19.9438 6.47811 20.0564 6.47811 20.1691C6.67134 20.8076 6.86471 21.4461 7.09658 22.0846C8.06273 21.8593 8.9902 21.5964 9.95635 21.371C10.1882 22.1222 10.4973 22.8357 10.8451 23.5118C11.734 23.2489 12.5842 23.0236 13.473 22.7607C13.3185 21.8593 13.1253 20.9954 12.8161 20.1315C13.6277 19.9813 14.4006 19.831 15.2122 19.6432C15.4827 19.6057 15.7531 19.5306 15.8691 19.3052C15.9464 19.155 15.9464 18.9297 15.9078 18.7794C15.8305 18.2912 15.7145 17.8029 15.6372 17.3146C15.5986 17.2019 15.5987 17.0517 15.4827 16.9766C15.3281 16.8264 15.0577 16.9014 14.8258 16.939C13.8983 17.2019 12.932 17.4649 12.0045 17.7278C12.1977 17.6903 11.5408 15.5494 11.3862 15.3616C10.652 14.3475 9.68569 14.9109 8.6036 15.2489C8.83548 16.4132 9.14465 17.6151 9.56975 18.7043Z" fill="#7D7E7F"/>
<path opacity="0.71" d="M26.6119 16.4878C26.4959 15.9995 26.3414 15.5488 26.1481 15.0981C25.0274 15.3611 23.9452 15.6991 22.9404 16.1874C23.0564 16.7132 23.2495 17.2015 23.5587 17.6146C23.9838 17.4268 24.4476 17.3893 24.8727 17.239C25.4911 17.0888 26.0322 16.7883 26.6119 16.4878Z" fill="#7D7E7F"/>
<path opacity="0.71" d="M31.3274 15.1733C31.2115 14.6851 31.0569 14.2344 30.8637 13.7837C29.743 14.0466 28.661 14.3847 27.6562 14.8729C27.7722 15.3987 27.9653 15.887 28.2745 16.3002C28.6996 16.1124 29.1634 16.0748 29.5886 15.9622C30.2069 15.7744 30.7864 15.4738 31.3274 15.1733Z" fill="#7D7E7F"/>
<path opacity="0.71" d="M22.0132 17.8024C21.8973 17.3141 21.7427 16.8634 21.5495 16.4127C20.4288 16.6756 19.3466 17.0137 18.3418 17.502C18.4577 18.0278 18.6511 18.5159 18.9603 18.9291C19.3854 18.7413 19.849 18.7038 20.2741 18.5536C20.8924 18.4034 21.4335 18.1028 22.0132 17.8024Z" fill="#7D7E7F"/>
<defs>
<linearGradient id="paint0_linear" x1="51.0156" y1="444.072" x2="167.491" y2="444.072" gradientUnits="userSpaceOnUse">
<stop stop-color="#4D4D4D"/>
<stop offset="1"/>
</linearGradient>
<linearGradient id="paint1_linear" x1="51.0156" y1="444.072" x2="167.491" y2="444.072" gradientUnits="userSpaceOnUse">
<stop/>
<stop offset="1"/>
</linearGradient>
</defs>
</svg>
