<svg width="283" height="437" viewBox="0 0 283 437" fill="none" xmlns="http://www.w3.org/2000/svg">
<path d="M80.9913 400.951L70.1661 422.186L52.5168 414.533L63.2873 393.7L80.9913 400.951Z" fill="#FCC9A7"/>
<path d="M76.1133 420.933C76.1133 419.658 74.7705 418.83 73.4276 419.3C70.7967 420.217 66.4666 421 61.2869 419.098C55.9154 417.129 54.9288 413.884 54.9014 411.759C54.9014 410.64 53.9148 409.789 52.6816 409.946L13.2997 414.578C10.9154 414.869 8.66819 415.988 7.07866 417.733C5.57135 419.367 6.28389 421.739 8.39412 422.276L67.1791 436.866C69.4812 437.447 72.0025 436.082 72.6876 433.889L76.0037 423.148C76.0585 422.969 76.0859 422.79 76.0859 422.611L76.1133 420.933Z" fill="#1F252A"/>
<path d="M240.574 349.439L265.239 360.538L254.03 374.031L229.831 363.022L240.574 349.439Z" fill="#FCC9A7"/>
<path d="M264.362 355.57C262.8 355.436 261.649 356.443 262.06 357.562C262.882 359.777 263.375 363.402 260.498 367.385C257.511 371.525 253.455 371.995 250.851 371.749C249.481 371.637 248.357 372.33 248.385 373.337L249.727 405.806C249.81 407.775 250.933 409.722 252.879 411.199C254.688 412.587 257.675 412.296 258.552 410.617L282.696 364.498C283.656 362.686 282.258 360.493 279.682 359.71L266.966 355.839C266.746 355.771 266.527 355.727 266.308 355.704L264.362 355.57Z" fill="#1F252A"/>
<path d="M94.0369 195.798L103.547 245.61L151.616 316.164L234.381 374.926L253.674 347.067L188.038 297.077L149.533 196.649L94.0369 195.798Z" fill="#092330"/>
<path d="M172.143 192.957C172.143 192.957 181.707 207.725 166.853 231.311L120.73 303.186L85.5683 412.117L50.6536 402.159L75.7297 291.997L120.182 206.025L94.0366 195.798L172.143 192.957Z" fill="#0C2C40"/>
<path d="M71.5913 52.8097C77.6753 58.2473 88.0072 58.6276 94.6394 53.6823C101.299 48.7146 101.765 40.2786 95.7082 34.841C89.6241 29.4034 79.3196 29.0229 72.6327 33.9682C65.9731 38.9583 65.5072 47.3721 71.5913 52.8097Z" fill="#FCC9A7"/>
<path d="M58.5461 59.657L72.7422 45.6938L84.0607 54.9802L70.7416 68.2946L58.5461 59.657Z" fill="#FCC9A7"/>
<path d="M90.5834 26.9643L77.5658 41.196C75.8666 43.0533 75.9215 45.6267 77.7028 47.4168L88.254 58.0459C90.7205 60.5297 95.3246 60.5521 97.8185 58.113L112.535 43.8142C114.563 41.845 114.454 38.936 112.289 37.0563L100.038 26.4944C97.4075 24.2343 92.8855 24.4357 90.5834 26.9643Z" fill="#1C2226"/>
<path d="M104.04 77.1334L52.4348 98.2797L80.7722 62.5884L62.0816 49.386L2.99514 115.488C-2.37636 121.171 -0.29353 129.451 7.40744 132.919C11.3264 134.687 16.0402 134.866 20.151 133.389L96.6674 108.573L104.04 77.1334Z" fill="#F7ECE7"/>
<path d="M85.5681 97.4293C85.5681 97.4293 94.6942 155.856 94.0364 195.798C94.0364 195.798 121.415 205.644 179.46 191.256L165.099 82.6158L137.145 74.9404L104.039 77.1334L85.5681 97.4293Z" fill="#F7ECE7"/>
<path d="M113.412 71.4496L114.125 75.2538C114.18 75.5223 114.07 75.8132 113.823 76.0146L106.671 82.213C106.013 82.7724 104.862 82.4591 104.752 81.6983L104.012 77.1334C103.957 76.8425 104.094 76.5516 104.368 76.3502L111.521 70.9126C112.206 70.4203 113.303 70.7112 113.412 71.4496Z" fill="#FCF3F0"/>
<path d="M122.977 81.2732C131.473 80.7137 137.804 74.6048 137.118 67.6679L135.063 47.3497L104.259 49.4084L110.617 77.4914C111.631 81.0718 114.454 81.8326 122.977 81.2732Z" fill="#FCC9A7"/>
<path d="M136.104 54.4655C136.104 54.4655 129.472 69.8609 116.016 67.9588C103.656 66.2134 104.259 49.4084 104.259 49.4084L136.104 54.4655Z" fill="#F4BE9A"/>
<path d="M118.154 62.3646L120.894 62.1185C134.542 60.9101 144.436 50.8852 142.956 39.7415L141.284 27.0314C139.804 15.8877 127.526 7.80953 113.878 9.01789L111.138 9.26404C97.4898 10.4724 87.5964 20.4973 89.0763 31.641L90.748 44.3511C92.2279 55.5173 104.506 63.5729 118.154 62.3646Z" fill="#FCC9A7"/>
<path d="M118.154 62.3646L120.894 62.1185C134.542 60.9101 144.436 50.8852 142.956 39.7415L141.284 27.0314C139.804 15.8877 127.526 7.80953 113.878 9.01789L111.138 9.26404C97.4898 10.4724 87.5964 20.4973 89.0763 31.641L90.748 44.3511C92.2279 55.5173 104.506 63.5729 118.154 62.3646Z" fill="#FCC9A7"/>
<path d="M142.408 35.7136C140.544 35.557 132.734 40.3905 130.706 38.287C127.91 35.378 125.361 30.0747 128.979 24.5699C129.582 23.6525 129.746 22.5784 129.363 21.5714C128.65 19.7589 126.732 17.6555 121.442 19.1771C112.974 21.6162 93.9273 29.4481 88.4187 18.2372C81.4577 4.11736 136.214 8.05573 136.214 8.05573L148.684 22.7797L143.34 43.7694L142.408 35.7136Z" fill="#1C2226"/>
<path d="M134.789 37.8395C135.31 41.8226 139.695 44.7092 144.573 44.2616C149.451 43.8365 152.986 40.2561 152.438 36.273C151.918 32.2899 147.533 29.4033 142.654 29.8509C137.776 30.2984 134.268 33.8564 134.789 37.8395Z" fill="#FCC9A7"/>
<path d="M120.182 85.5919L127.17 173.556L114.153 183.536L106.424 173.869L114.153 83.8465L120.182 85.5919Z" fill="#0C2C40"/>
<path d="M109.768 79.5278L110.836 78.3194L110.562 77.2677H125.964L127.17 80.5571L116.92 87.9415L109.768 79.5278Z" fill="#0C2C40"/>
<path d="M136.132 66.4819L121.552 74.5824C119.908 75.4999 119.688 77.4243 121.113 78.5655L132.569 87.7624C133.857 88.7918 135.967 88.747 137.173 87.6282L148.711 77.0439C149.835 76.0145 149.78 74.4258 148.574 73.4636L140.133 66.7281C139.064 65.9002 137.392 65.7882 136.132 66.4819Z" fill="#FCF3F0"/>
<path d="M74.3593 70.6665L52.5444 59.9255" stroke="#EADDD8" stroke-width="0.7599" stroke-miterlimit="10" stroke-linecap="round" stroke-linejoin="round"/>
<path d="M114.098 155.028L106.451 221.778C106.15 224.284 108.26 226.567 111.302 227.059L205.057 241.694C208.51 242.231 211.771 240.262 212.155 237.42L220.733 173.981C221.062 171.519 219.089 169.237 216.129 168.655L121.442 150.731C117.907 150.038 114.454 152.074 114.098 155.028Z" fill="#AFAFAF"/>
<path d="M120.757 156.214L113.111 222.964C112.837 225.47 114.92 227.753 117.962 228.245L211.716 242.88C215.17 243.417 218.431 241.448 218.814 238.606L227.392 175.167C227.721 172.705 225.748 170.423 222.788 169.841L128.102 151.895C124.539 151.224 121.086 153.26 120.757 156.214Z" fill="#D1D1D1"/>
<path d="M156.138 217.638C148.601 211.999 136.872 212.425 129.966 218.578C123.059 224.732 123.58 234.309 131.117 239.948C138.653 245.587 150.383 245.162 157.289 239.008C164.195 232.832 163.674 223.277 156.138 217.638Z" fill="#FCC9A7"/>
<path d="M170.032 208.822L155.726 225.784L141.804 216.206L155.178 200.072L170.032 208.822Z" fill="#FCC9A7"/>
<path d="M165.127 82.6158C165.127 82.6158 186.092 84.3388 192.176 112.332L216.293 153.238C216.951 155.028 217.39 156.863 217.609 158.697L166.881 218.198L143.997 207.121L185.024 153.416L160.112 121.216L165.127 82.6158Z" fill="#F7ECE7"/>
<path d="M151.451 199.088L174.554 209.202" stroke="#EADDD8" stroke-width="0.7599" stroke-miterlimit="10" stroke-linecap="round" stroke-linejoin="round"/>
<path d="M172.307 136.992L157.535 116.002" stroke="#EADDD8" stroke-width="0.7599" stroke-miterlimit="10" stroke-linecap="round" stroke-linejoin="round"/>
<path d="M94.0642 23.2273C83.5953 19.3561 85.7877 9.37595 88.172 6.22079C88.172 6.22079 88.6379 11.8374 93.3243 10.5396C93.3243 10.5396 92.694 2.17057 106.424 0C106.424 0 101.354 7.51866 119.414 6.08654C141.586 4.31876 142.874 15.7758 141.64 30.0075L134.844 26.0244L129.582 16.1114H111.631L94.0642 23.2273Z" fill="#1C2226"/>
</svg>
